<svg width="128" height="128" viewBox="0 0 128 128" fill="none" xmlns="http://www.w3.org/2000/svg">
<path d="M16 27.9297H112C116.434 27.9297 120 31.5 120 35.9297V86L90 116H16C11.5664 116 8 112.434 8 108V35.9297C8 31.5 11.5664 27.9297 16 27.9297Z" fill="#F6F5F4"/>
<path d="M48.7109 97.9648H83.2891C89.2031 97.9648 94 93.1719 94 87.2539V52.6758C94 46.7617 89.2031 41.9648 83.2891 41.9648H48.7109C42.7969 41.9648 38 46.7617 38 52.6758V87.2539C38 93.1719 42.7969 97.9648 48.7109 97.9648Z" stroke="#FF7800" stroke-width="4" stroke-linecap="round"/>
<path d="M120 86.125H98C93.5664 86.125 90 89.6953 90 94.125V116L120 86.125Z" fill="#DEDDDA"/>
<path d="M83 46V97" stroke="#FFBE6F" stroke-width="2" stroke-dasharray="2 2"/>
<path d="M49 46V97" stroke="#FFBE6F" stroke-width="2" stroke-dasharray="2 2"/>
<path d="M48.4531 66H83.5469C89.3203 66 94 61.3203 94 55.5469V52.4219C94 46.6445 89.3203 41.9648 83.5469 41.9648H48.4531C42.6797 41.9648 38 46.6445 38 52.4219V55.5469C38 61.3203 42.6797 66 48.4531 66Z" stroke="#FF7800" stroke-width="4" stroke-dasharray="4 4"/>
<path d="M91.9414 77.6875C90.4375 75.9961 88.2461 74.9297 85.7969 74.9297H46.2031C43.6914 74.9297 41.4531 76.0469 39.9492 77.8164" stroke="#FFBE6F" stroke-width="2" stroke-dasharray="2 2"/>
</svg>
