<svg width="128" height="128" viewBox="0 0 128 128" fill="none" xmlns="http://www.w3.org/2000/svg">
<path d="M28 8H78L108.043 37.918V111.977C108.043 116.41 104.434 120 100 120H28C23.5664 120 20 116.434 20 112V16C20 11.5664 23.5664 8 28 8Z" fill="#F6F5F4"/>
<path d="M78 8V30C78 34.4336 81.6094 37.9219 86.043 37.9219L108.043 37.918L78 8Z" fill="#DEDDDA"/>
<path d="M94.0234 73.918C94.0234 90.4883 80.5898 103.918 64.0234 103.918C47.4531 103.918 34.0234 90.4883 34.0234 73.918C34.0234 57.3516 47.4531 43.918 64.0234 43.918C80.5898 43.918 94.0234 57.3516 94.0234 73.918Z" fill="#F6D32D"/>
<path d="M94.0234 72.918C94.0234 89.4883 80.5898 102.918 64.0234 102.918C47.4531 102.918 34.0234 89.4883 34.0234 72.918C34.0234 56.3516 47.4531 42.918 64.0234 42.918C80.5898 42.918 94.0234 56.3516 94.0234 72.918Z" fill="#3584E4"/>
<path d="M46.0234 73.418C46.0859 80.375 47.4648 87.1016 49.9414 92.543C47.9727 93.5508 46.3008 94.7656 45.0117 96.125C38.1914 90.5391 34.1719 82.2344 34.0273 73.418H46.0234Z" fill="#F9F06B"/>
<path d="M64.0234 73.418V102.918C61.7695 102.918 59.5273 102.664 57.332 102.164C50.5977 97.4453 46.1406 86.1133 46.0234 73.418H64.0234Z" fill="#F8E45C"/>
<path d="M64.0234 89.418V102.918C61.7695 102.918 59.5273 102.664 57.332 102.164C54.4336 100.133 51.8867 96.8203 49.9414 92.5469C53.8945 90.5234 58.8789 89.418 64.0234 89.418Z" fill="#F6D32D"/>
<path d="M49.9414 92.543C51.8867 96.8164 54.4336 100.133 57.332 102.164C52.8164 101.129 48.5977 99.0625 45.0117 96.125C46.3008 94.7656 47.9727 93.5508 49.9414 92.543Z" fill="#F8E45C"/>
<path d="M82.0195 73.418C81.957 80.3789 80.5781 87.1016 78.1016 92.5469C80.0742 93.5547 81.7422 94.7656 83.0312 96.125C89.8516 90.5391 93.8711 82.2344 94.0195 73.418H82.0195Z" fill="#F5C211"/>
<path d="M64.0234 73.418V102.918C66.2734 102.918 68.5156 102.664 70.7109 102.164C77.4453 97.4453 81.9063 86.1133 82.0195 73.418H64.0234Z" fill="#F6D32D"/>
<path d="M64.0234 89.418V102.918C66.2734 102.918 68.5156 102.664 70.7109 102.164C73.6094 100.133 76.1563 96.8203 78.1016 92.5469C74.1484 90.5234 69.168 89.418 64.0234 89.418Z" fill="#F5C211"/>
<path d="M78.1016 92.543C76.1563 96.8164 73.6094 100.133 70.7109 102.164C75.2305 101.129 79.4453 99.0625 83.0312 96.125C81.7422 94.7656 80.0742 93.5508 78.1016 92.543Z" fill="#E5A50A"/>
<path d="M64.0234 42.918C47.4531 42.918 34.0234 56.3516 34.0234 72.918C34.0234 73.0859 34.0234 73.2539 34.0273 73.418H64.0234V42.918Z" fill="#FBF494"/>
<path d="M57.3359 43.6758C52.8164 44.707 48.5977 46.7734 45.0117 49.7109C46.3008 51.0742 47.9727 52.2852 49.9414 53.293C51.8867 49.0195 54.4375 45.7031 57.3359 43.6758Z" fill="#FEF8A5"/>
<path d="M64.0234 42.918C61.7734 42.918 59.5273 43.1719 57.3359 43.6758C50.5039 48.457 46.0234 60.0391 46.0234 72.918V73.418H64.0234V42.918Z" fill="#F9F06B"/>
<path d="M64.0234 42.918C61.7734 42.918 59.5273 43.1719 57.3359 43.6758C54.4375 45.7031 51.8906 49.0195 49.9453 53.293C53.8984 55.3125 58.8789 56.418 64.0234 56.418V42.918Z" fill="#FBF494"/>
<path d="M64.0234 42.918C80.5898 42.918 94.0234 56.3516 94.0234 72.918C94.0234 73.0859 94.0195 73.2539 94.0195 73.418H64.0234V42.918Z" fill="#F6D32D"/>
<path d="M70.707 43.6758C75.2266 44.707 79.4453 46.7734 83.0352 49.7109C81.7422 51.0742 80.0742 52.2852 78.1016 53.293C76.1563 49.0195 73.6094 45.7031 70.707 43.6758Z" fill="#F8E45C"/>
<path d="M64.0234 42.918C66.2734 42.918 68.5156 43.1719 70.707 43.6758C77.543 48.457 82.0234 60.0391 82.0234 72.918C82.0234 73.0859 82.0234 73.2539 82.0195 73.418H64.0234V42.918Z" fill="#F8E45C"/>
<path d="M64.0234 42.918C66.2734 42.918 68.5156 43.1719 70.707 43.6758C73.6094 45.7031 76.1563 49.0195 78.1016 53.293C74.1484 55.3125 69.168 56.418 64.0234 56.418V42.918Z" fill="#F9F06B"/>
</svg>
